<svg xmlns="http://www.w3.org/2000/svg" viewBox="0 0 540 220" width="100%" height="100%">
  <defs>
    <filter id="shadow2" x="-5%" y="-10%" width="110%" height="125%">
      <feDropShadow dx="0" dy="4" stdDeviation="4" flood-opacity="0.08" />
    </filter>
  </defs>

  <rect x="15" y="10" width="510" height="200" rx="10" fill="#ffffff" stroke="#cbd5e1" stroke-width="1.5" filter="url(#shadow2)" />
  <path d="M 15 20 A 10 10 0 0 1 25 10 L 515 10 A 10 10 0 0 1 525 20 L 525 38 L 15 38 Z" fill="#f1f5f9" />
  <circle cx="32" cy="24" r="4" fill="#f87171" />
  <circle cx="44" cy="24" r="4" fill="#fbbf24" />
  <circle cx="56" cy="24" r="4" fill="#34d399" />
  <text x="75" y="27" font-family="'Segoe UI', sans-serif" font-size="11" font-weight="600" fill="#64748b">Emplacements autorisés de &lt;figcaption&gt; dans &lt;figure&gt;</text>

  <!-- Option 1: Top position -->
  <rect x="40" y="52" width="215" height="142" rx="8" fill="#f8fafc" stroke="#6366f1" stroke-width="1.5" />
  <text x="147" y="70" font-family="'Segoe UI', sans-serif" font-size="11" font-weight="bold" fill="#4338ca" text-anchor="middle">Position 1 : En Haut (Premier)</text>
  <rect x="52" y="78" width="191" height="28" rx="5" fill="#d1fae5" stroke="#10b981" stroke-width="1.5" />
  <text x="147" y="96" font-family="monospace" font-size="11" font-weight="bold" fill="#065f46" text-anchor="middle">&lt;figcaption&gt; ✓</text>
  <rect x="52" y="112" width="191" height="70" rx="5" fill="#e0e7ff" stroke="#a5b4fc" stroke-width="1" />
  <text x="147" y="152" font-family="monospace" font-size="11" fill="#4338ca" text-anchor="middle">&lt;img&gt; (Contenu)</text>

  <!-- Option 2: Bottom position -->
  <rect x="285" y="52" width="215" height="142" rx="8" fill="#f8fafc" stroke="#6366f1" stroke-width="1.5" />
  <text x="392" y="70" font-family="'Segoe UI', sans-serif" font-size="11" font-weight="bold" fill="#4338ca" text-anchor="middle">Position 2 : En Bas (Dernier)</text>
  <rect x="297" y="78" width="191" height="70" rx="5" fill="#e0e7ff" stroke="#a5b4fc" stroke-width="1" />
  <text x="392" y="118" font-family="monospace" font-size="11" fill="#4338ca" text-anchor="middle">&lt;img&gt; (Contenu)</text>
  <rect x="297" y="154" width="191" height="28" rx="5" fill="#d1fae5" stroke="#10b981" stroke-width="1.5" />
  <text x="392" y="172" font-family="monospace" font-size="11" font-weight="bold" fill="#065f46" text-anchor="middle">&lt;figcaption&gt; ✓</text>
</svg>
