<svg xmlns="http://www.w3.org/2000/svg" viewBox="0 0 540 220" width="100%" height="100%">
  <defs>
    <filter id="shadow8" x="-5%" y="-10%" width="110%" height="125%">
      <feDropShadow dx="0" dy="4" stdDeviation="4" flood-opacity="0.08" />
    </filter>
  </defs>

  <rect x="15" y="10" width="510" height="200" rx="10" fill="#ffffff" stroke="#cbd5e1" stroke-width="1.5" filter="url(#shadow8)" />
  <path d="M 15 20 A 10 10 0 0 1 25 10 L 515 10 A 10 10 0 0 1 525 20 L 525 38 L 15 38 Z" fill="#f1f5f9" />
  <circle cx="32" cy="24" r="4" fill="#f87171" />
  <circle cx="44" cy="24" r="4" fill="#fbbf24" />
  <circle cx="56" cy="24" r="4" fill="#34d399" />
  <text x="75" y="27" font-family="'Segoe UI', sans-serif" font-size="11" font-weight="600" fill="#64748b">Coordonnées de l'auteur / propriétaire : &lt;address&gt;</text>

  <!-- Footer block mockup -->
  <rect x="40" y="52" width="460" height="142" rx="8" fill="#1e293b" />
  <text x="55" y="70" font-family="monospace" font-size="10" fill="#94a3b8">&lt;footer&gt;</text>

  <!-- <address> inner card -->
  <rect x="60" y="80" width="420" height="98" rx="6" fill="#334155" stroke="#64748b" stroke-width="1" />
  <rect x="75" y="70" width="90" height="20" rx="4" fill="#6366f1" />
  <text x="120" y="84" font-family="monospace" font-size="11" font-weight="bold" fill="#ffffff" text-anchor="middle">&lt;address&gt;</text>

  <!-- Content lines inside address -->
  <text x="80" y="108" font-family="'Segoe UI', sans-serif" font-size="12" font-style="italic" fill="#f8fafc">👤 Rédigé par Mohamed Anis MANI</text>
  <text x="80" y="128" font-family="'Segoe UI', sans-serif" font-size="12" font-style="italic" fill="#38bdf8">✉️ Courriel : contact@education.tn</text>
  <text x="80" y="148" font-family="'Segoe UI', sans-serif" font-size="12" font-style="italic" fill="#cbd5e1">📍 Tunis, Tunisie</text>
  <text x="80" y="168" font-family="'Segoe UI', sans-serif" font-size="10" font-style="italic" fill="#94a3b8">Spécifiquement dédié aux coordonnées de l'auteur ou du webmaster.</text>
</svg>
